<?xml version="1.0" encoding="UTF-8"?>
<svg xmlns="http://www.w3.org/2000/svg" width="2048" height="700" viewBox="0 0 2048 700" role="img" aria-labelledby="title desc">
  <title id="title">ICON logo vector trace</title>
  <desc id="desc">Vector trace generated from the provided blue ICON logo image.</desc>
  <path fill="#010080" fill-rule="evenodd" d="
    M 1041 60 L 1040 61 L 1030 61 L 1029 62 L 1014 63 L 998 66 L 990 69 L 982 70 L 944 84 L 938 88 L 928 92 L 895 113 L 871 133 L 849 156 L 835 174 L 817 203 L 803 233 L 795 256 L 794 264 L 790 276 L 787 299 L 786 300 L 785 354 L 786 355 L 786 367 L 787 368 L 788 381 L 790 386 L 794 407 L 800 423 L 800 426 L 807 443 L 814 456 L 814 458 L 824 476 L 827 479 L 836 494 L 854 516 L 876 538 L 900 557 L 922 571 L 950 585 L 971 593 L 974 593 L 991 599 L 996 599 L 1001 601 L 1022 604 L 1023 605 L 1047 606 L 1048 607 L 1082 606 L 1083 605 L 1092 605 L 1093 604 L 1105 603 L 1110 601 L 1135 596 L 1148 591 L 1151 591 L 1156 588 L 1168 584 L 1181 577 L 1183 577 L 1190 572 L 1202 566 L 1234 543 L 1267 510 L 1279 495 L 1299 463 L 1312 435 L 1321 409 L 1321 405 L 1326 389 L 1328 372 L 1329 371 L 1329 362 L 1330 361 L 1330 352 L 1331 351 L 1331 316 L 1330 315 L 1330 306 L 1329 305 L 1329 295 L 1328 294 L 1325 273 L 1323 269 L 1321 257 L 1309 224 L 1293 193 L 1279 172 L 1265 154 L 1237 126 L 1219 112 L 1198 98 L 1155 77 L 1152 77 L 1134 70 L 1130 70 L 1118 66 L 1102 63 L 1076 61 L 1075 60 Z
    M 1453 112 L 1441 122 L 1422 141 L 1408 159 L 1396 178 L 1381 210 L 1380 216 L 1374 231 L 1373 240 L 1368 259 L 1367 278 L 1366 279 L 1366 315 L 1365 316 L 1365 438 L 1366 439 L 1366 469 L 1367 470 L 1368 495 L 1369 496 L 1370 510 L 1374 529 L 1382 545 L 1392 559 L 1413 579 L 1431 591 L 1447 599 L 1469 607 L 1473 607 L 1485 611 L 1496 611 L 1503 605 L 1505 599 L 1505 311 L 1514 279 L 1520 266 L 1537 242 L 1549 230 L 1569 216 L 1595 205 L 1598 205 L 1602 203 L 1607 203 L 1612 201 L 1633 199 L 1634 198 L 1668 198 L 1669 199 L 1678 199 L 1679 200 L 1685 200 L 1705 204 L 1723 210 L 1747 223 L 1763 237 L 1776 253 L 1783 265 L 1790 282 L 1790 286 L 1792 289 L 1796 310 L 1796 602 L 1798 606 L 1805 611 L 1824 611 L 1834 609 L 1838 607 L 1842 607 L 1864 597 L 1885 581 L 1902 561 L 1914 542 L 1926 514 L 1931 496 L 1933 470 L 1934 469 L 1935 432 L 1936 431 L 1939 302 L 1938 301 L 1938 288 L 1937 287 L 1937 277 L 1935 270 L 1935 262 L 1929 239 L 1929 235 L 1925 222 L 1923 219 L 1923 216 L 1914 194 L 1907 182 L 1907 180 L 1891 155 L 1880 141 L 1851 113 L 1828 97 L 1804 84 L 1774 72 L 1745 64 L 1740 64 L 1718 59 L 1703 58 L 1702 57 L 1691 57 L 1690 56 L 1666 56 L 1665 55 L 1616 56 L 1615 57 L 1595 58 L 1566 64 L 1560 64 L 1556 66 L 1552 66 L 1541 70 L 1534 71 L 1500 84 L 1477 96 Z
    M 460 80 L 438 92 L 413 110 L 393 129 L 379 146 L 360 176 L 350 197 L 348 205 L 344 213 L 343 220 L 336 241 L 336 247 L 333 257 L 332 268 L 330 275 L 330 286 L 329 287 L 329 298 L 328 299 L 327 341 L 328 342 L 329 378 L 330 379 L 330 389 L 331 390 L 332 401 L 336 416 L 336 423 L 338 431 L 341 438 L 342 445 L 344 448 L 344 452 L 356 482 L 366 501 L 385 529 L 408 553 L 421 564 L 440 577 L 467 591 L 480 596 L 503 603 L 521 607 L 529 607 L 538 609 L 571 610 L 572 611 L 644 610 L 645 609 L 656 609 L 657 608 L 688 605 L 705 600 L 721 591 L 735 580 L 747 567 L 759 550 L 768 533 L 769 528 L 775 515 L 781 492 L 781 485 L 779 481 L 774 476 L 771 475 L 582 475 L 581 474 L 572 474 L 545 466 L 522 454 L 512 447 L 491 425 L 479 404 L 473 388 L 469 373 L 468 360 L 467 359 L 467 347 L 466 346 L 466 320 L 467 319 L 469 293 L 476 268 L 483 253 L 491 240 L 509 221 L 528 208 L 554 198 L 568 195 L 767 195 L 772 194 L 776 192 L 781 184 L 780 164 L 774 142 L 766 126 L 758 115 L 747 103 L 734 92 L 711 78 L 709 78 L 698 72 L 675 64 L 665 62 L 645 60 L 644 59 L 636 59 L 635 58 L 608 57 L 607 56 L 550 56 L 542 58 L 533 58 L 509 64 L 504 64 L 488 70 L 479 72 Z
    M 156 66 L 155 67 L 150 67 L 143 70 L 141 72 L 138 80 L 138 546 L 139 547 L 140 557 L 145 569 L 152 579 L 158 585 L 167 591 L 181 597 L 195 600 L 232 599 L 251 593 L 265 585 L 276 574 L 284 561 L 287 551 L 287 184 L 286 183 L 286 174 L 285 173 L 284 160 L 276 134 L 263 111 L 247 94 L 226 80 L 204 71 L 178 66 Z
    M 1046 209 L 1078 210 L 1097 215 L 1121 226 L 1138 238 L 1153 253 L 1167 273 L 1176 293 L 1182 320 L 1182 347 L 1176 373 L 1167 393 L 1154 412 L 1134 432 L 1111 446 L 1089 454 L 1073 456 L 1072 457 L 1061 457 L 1060 458 L 1036 456 L 1031 454 L 1026 454 L 1009 448 L 992 439 L 975 426 L 959 409 L 945 386 L 939 371 L 935 355 L 934 340 L 933 339 L 934 318 L 939 296 L 950 271 L 961 255 L 979 237 L 996 225 L 1006 221 L 1008 219 L 1025 213 Z
  "/>
</svg>
